<?xml version="1.0" encoding="utf-8"?>
<!-- Generator: Adobe Illustrator 16.0.0, SVG Export Plug-In . SVG Version: 6.00 Build 0)  -->
<!DOCTYPE svg PUBLIC "-//W3C//DTD SVG 1.1//EN" "http://www.w3.org/Graphics/SVG/1.1/DTD/svg11.dtd">
<svg version="1.1" id="Layer_1" xmlns="http://www.w3.org/2000/svg" xmlns:xlink="http://www.w3.org/1999/xlink" x="0px" y="0px"
	 width="202.5px" height="193.4px" viewBox="0 0 202.5 193.4" style="enable-background:new 0 0 202.5 193.4;" xml:space="preserve"
	>
<g>
	<path d="M189,152.8c0,14.9-12.1,27-27,27H27c-14.9,0-27-12.1-27-27H189z M155.3,112.3h-6.8v3.4c0,13-10.7,23.6-23.6,23.6H50.6
		c-13,0-23.6-10.7-23.6-23.6V38.1c0-3.7,3.1-6.8,6.8-6.8h121.5c22.4,0,40.5,18.1,40.5,40.5S177.6,112.3,155.3,112.3z M155.3,51.6
		h-6.8v40.5h6.8c11.2,0,20.3-9.1,20.3-20.3S166.5,51.6,155.3,51.6z"/>
</g>
</svg>
